# Blender 4.3.2
# www.blender.org
mtllib Molotov.mtl
o Cylinder
v 0.000000 -1.997701 -0.620822
v 0.000000 0.124267 -0.620822
v 0.121116 -1.997701 -0.608893
v 0.121116 0.124267 -0.608893
v 0.237578 -1.997701 -0.573565
v 0.237578 0.124267 -0.573565
v 0.344910 -1.997701 -0.516194
v 0.344910 0.124267 -0.516194
v 0.438987 -1.997701 -0.438987
v 0.438987 0.124267 -0.438987
v 0.516194 -1.997701 -0.344910
v 0.516194 0.124267 -0.344910
v 0.573565 -1.997701 -0.237578
v 0.573565 0.124267 -0.237578
v 0.608893 -1.997701 -0.121116
v 0.608893 0.124267 -0.121116
v 0.620822 -1.997701 0.000000
v 0.620822 0.124267 0.000000
v 0.608893 -1.997701 0.121116
v 0.608893 0.124267 0.121116
v 0.573565 -1.997701 0.237578
v 0.573565 0.124267 0.237578
v 0.516194 -1.997701 0.344910
v 0.516194 0.124267 0.344910
v 0.438987 -1.997701 0.438987
v 0.438987 0.124267 0.438987
v 0.344910 -1.997701 0.516194
v 0.344910 0.124267 0.516194
v 0.237578 -1.997701 0.573565
v 0.237578 0.124267 0.573565
v 0.121116 -1.997701 0.608893
v 0.121116 0.124267 0.608893
v 0.000000 -1.997701 0.620822
v 0.000000 0.124267 0.620822
v -0.121116 -1.997701 0.608893
v -0.121116 0.124267 0.608893
v -0.237578 -1.997701 0.573565
v -0.237578 0.124267 0.573565
v -0.344910 -1.997701 0.516194
v -0.344910 0.124267 0.516194
v -0.438987 -1.997701 0.438987
v -0.438987 0.124267 0.438987
v -0.516194 -1.997701 0.344910
v -0.516194 0.124267 0.344910
v -0.573565 -1.997701 0.237578
v -0.573565 0.124267 0.237578
v -0.608893 -1.997701 0.121116
v -0.608893 0.124267 0.121116
v -0.620822 -1.997701 0.000000
v -0.620822 0.124267 0.000000
v -0.608893 -1.997701 -0.121116
v -0.608893 0.124267 -0.121116
v -0.573565 -1.997701 -0.237578
v -0.573565 0.124267 -0.237578
v -0.516194 -1.997701 -0.344910
v -0.516194 0.124267 -0.344910
v -0.438987 -1.997701 -0.438987
v -0.438987 0.124267 -0.438987
v -0.344910 -1.997701 -0.516194
v -0.344910 0.124267 -0.516194
v -0.237578 -1.997701 -0.573565
v -0.237578 0.124267 -0.573565
v -0.121116 -1.997701 -0.608893
v -0.121116 0.124267 -0.608893
v 0.076842 0.514916 -0.386312
v 0.000000 0.514916 -0.393881
v 0.150732 0.514916 -0.363898
v 0.218828 0.514916 -0.327500
v 0.278516 0.514916 -0.278516
v 0.327500 0.514916 -0.218828
v 0.363898 0.514916 -0.150732
v 0.386312 0.514916 -0.076842
v 0.393881 0.514916 0.000000
v 0.386312 0.514916 0.076842
v 0.363898 0.514916 0.150732
v 0.327500 0.514916 0.218828
v 0.278516 0.514916 0.278516
v 0.218828 0.514916 0.327500
v 0.150732 0.514916 0.363898
v 0.076842 0.514916 0.386312
v 0.000000 0.514916 0.393881
v -0.076842 0.514916 0.386312
v -0.150732 0.514916 0.363898
v -0.218828 0.514916 0.327500
v -0.278516 0.514916 0.278516
v -0.327500 0.514916 0.218828
v -0.363898 0.514916 0.150732
v -0.386312 0.514916 0.076842
v -0.393881 0.514916 0.000000
v -0.386312 0.514916 -0.076842
v -0.363898 0.514916 -0.150732
v -0.327500 0.514916 -0.218828
v -0.278516 0.514916 -0.278516
v -0.218828 0.514916 -0.327500
v -0.150732 0.514916 -0.363898
v -0.076842 0.514916 -0.386312
v 0.068057 0.590525 -0.342144
v 0.000000 0.590525 -0.348847
v 0.133498 0.590525 -0.322292
v 0.193809 0.590525 -0.290055
v 0.246672 0.590525 -0.246672
v 0.290055 0.590525 -0.193809
v 0.322292 0.590525 -0.133498
v 0.342144 0.590525 -0.068057
v 0.348847 0.590525 0.000000
v 0.342144 0.590525 0.068057
v 0.322292 0.590525 0.133498
v 0.290055 0.590525 0.193809
v 0.246672 0.590525 0.246672
v 0.193809 0.590525 0.290055
v 0.133498 0.590525 0.322292
v 0.068057 0.590525 0.342144
v 0.000000 0.590525 0.348847
v -0.068057 0.590525 0.342144
v -0.133498 0.590525 0.322292
v -0.193809 0.590525 0.290055
v -0.246672 0.590525 0.246672
v -0.290055 0.590525 0.193809
v -0.322292 0.590525 0.133498
v -0.342144 0.590525 0.068057
v -0.348847 0.590525 0.000000
v -0.342144 0.590525 -0.068057
v -0.322292 0.590525 -0.133498
v -0.290055 0.590525 -0.193809
v -0.246672 0.590525 -0.246672
v -0.193809 0.590525 -0.290055
v -0.133498 0.590525 -0.322292
v -0.068057 0.590525 -0.342144
v 0.068057 1.044182 -0.342144
v 0.000000 1.044182 -0.348847
v 0.133498 1.044182 -0.322292
v 0.193809 1.044182 -0.290055
v 0.246672 1.044182 -0.246672
v 0.290055 1.044182 -0.193809
v 0.322292 1.044182 -0.133498
v 0.342144 1.044182 -0.068057
v 0.348847 1.044182 0.000000
v 0.342144 1.044182 0.068057
v 0.322292 1.044182 0.133498
v 0.290055 1.044182 0.193809
v 0.246672 1.044182 0.246672
v 0.193809 1.044182 0.290055
v 0.133498 1.044182 0.322292
v 0.068057 1.044182 0.342144
v 0.000000 1.044182 0.348847
v -0.068057 1.044182 0.342144
v -0.133498 1.044182 0.322292
v -0.193809 1.044182 0.290055
v -0.246672 1.044182 0.246672
v -0.290055 1.044182 0.193809
v -0.322292 1.044182 0.133498
v -0.342144 1.044182 0.068057
v -0.348847 1.044182 0.000000
v -0.342144 1.044182 -0.068057
v -0.322292 1.044182 -0.133498
v -0.290055 1.044182 -0.193809
v -0.246672 1.044182 -0.246672
v -0.193809 1.044182 -0.290055
v -0.133498 1.044182 -0.322292
v -0.068057 1.044182 -0.342144
v 0.050296 1.955696 -0.252854
v -0.000000 1.955696 -0.257807
v 0.098658 1.955696 -0.238183
v 0.143230 1.955696 -0.214359
v 0.182297 1.955696 -0.182297
v 0.214359 1.955696 -0.143230
v 0.238183 1.955696 -0.098659
v 0.252853 1.955696 -0.050296
v 0.257807 1.955696 0.000000
v 0.252853 1.955696 0.050296
v 0.238183 1.955696 0.098659
v 0.214359 1.955696 0.143230
v 0.182297 1.955696 0.182297
v 0.143230 1.955696 0.214359
v 0.098658 1.955696 0.238183
v 0.050296 1.955696 0.252854
v -0.000000 1.955696 0.257807
v -0.050296 1.955696 0.252854
v -0.098659 1.955696 0.238183
v -0.143230 1.955696 0.214359
v -0.182297 1.955696 0.182297
v -0.214359 1.955696 0.143230
v -0.238183 1.955696 0.098659
v -0.252854 1.955696 0.050296
v -0.257807 1.955696 0.000000
v -0.252854 1.955696 -0.050296
v -0.238183 1.955696 -0.098659
v -0.214359 1.955696 -0.143230
v -0.182297 1.955696 -0.182297
v -0.143230 1.955696 -0.214359
v -0.098659 1.955696 -0.238183
v -0.050296 1.955696 -0.252854
v 0.059712 1.989300 -0.300194
v -0.000000 1.989300 -0.306075
v 0.117130 1.989300 -0.282777
v 0.170046 1.989300 -0.254492
v 0.216428 1.989300 -0.216428
v 0.254492 1.989300 -0.170046
v 0.282777 1.989300 -0.117130
v 0.300194 1.989300 -0.059712
v 0.306075 1.989300 0.000000
v 0.300194 1.989300 0.059712
v 0.282777 1.989300 0.117130
v 0.254492 1.989300 0.170046
v 0.216428 1.989300 0.216428
v 0.170046 1.989300 0.254492
v 0.117130 1.989300 0.282777
v 0.059712 1.989300 0.300194
v -0.000000 1.989300 0.306075
v -0.059712 1.989300 0.300194
v -0.117130 1.989300 0.282777
v -0.170046 1.989300 0.254492
v -0.216428 1.989300 0.216428
v -0.254493 1.989300 0.170046
v -0.282777 1.989300 0.117130
v -0.300194 1.989300 0.059712
v -0.306075 1.989300 0.000000
v -0.300194 1.989300 -0.059712
v -0.282777 1.989300 -0.117130
v -0.254493 1.989300 -0.170046
v -0.216428 1.989300 -0.216428
v -0.170046 1.989300 -0.254492
v -0.117130 1.989300 -0.282777
v -0.059712 1.989300 -0.300194
v 0.048203 2.102715 -0.242335
v -0.000000 2.102715 -0.247083
v 0.094554 2.102715 -0.228275
v 0.137272 2.102715 -0.205442
v 0.174714 2.102715 -0.174714
v 0.205442 2.102715 -0.137272
v 0.228275 2.102715 -0.094554
v 0.242335 2.102715 -0.048203
v 0.247083 2.102715 0.000000
v 0.242335 2.102715 0.048203
v 0.228275 2.102715 0.094555
v 0.205442 2.102715 0.137272
v 0.174714 2.102715 0.174714
v 0.137272 2.102715 0.205442
v 0.094554 2.102715 0.228275
v 0.048203 2.102715 0.242335
v -0.000000 2.102715 0.247083
v -0.048204 2.102715 0.242335
v -0.094555 2.102715 0.228275
v -0.137272 2.102715 0.205442
v -0.174714 2.102715 0.174714
v -0.205442 2.102715 0.137272
v -0.228275 2.102715 0.094555
v -0.242335 2.102715 0.048203
v -0.247083 2.102715 0.000000
v -0.242335 2.102715 -0.048203
v -0.228275 2.102715 -0.094554
v -0.205442 2.102715 -0.137272
v -0.174714 2.102715 -0.174714
v -0.137272 2.102715 -0.205442
v -0.094555 2.102715 -0.228275
v -0.048204 2.102715 -0.242335
v 0.048203 2.274936 -0.242335
v -0.000000 2.274936 -0.247083
v 0.094554 2.274936 -0.228275
v 0.137272 2.274936 -0.205442
v 0.174714 2.274936 -0.174714
v 0.205442 2.274936 -0.137272
v 0.228275 2.274936 -0.094554
v 0.242335 2.274936 -0.048203
v 0.247083 2.274936 0.000000
v 0.242335 2.274936 0.048203
v 0.228275 2.274936 0.094555
v 0.205442 2.274936 0.137272
v 0.174714 2.274936 0.174714
v 0.137272 2.274936 0.205442
v 0.094554 2.274936 0.228275
v 0.048203 2.274936 0.242335
v -0.000000 2.274936 0.247083
v -0.048204 2.274936 0.242335
v -0.094555 2.274936 0.228275
v -0.137272 2.274936 0.205442
v -0.174714 2.274936 0.174714
v -0.205442 2.274936 0.137272
v -0.228275 2.274936 0.094555
v -0.242335 2.274936 0.048203
v -0.247083 2.274936 0.000000
v -0.242335 2.274936 -0.048203
v -0.228275 2.274936 -0.094554
v -0.205442 2.274936 -0.137272
v -0.174714 2.274936 -0.174714
v -0.137272 2.274936 -0.205442
v -0.094555 2.274936 -0.228275
v -0.048204 2.274936 -0.242335
v -0.000000 -2.266535 -0.529356
v 0.103272 -2.266535 -0.519184
v 0.202576 -2.266535 -0.489061
v 0.294094 -2.266535 -0.440143
v 0.374311 -2.266535 -0.374311
v 0.440143 -2.266535 -0.294094
v 0.489061 -2.266535 -0.202576
v 0.519184 -2.266535 -0.103272
v 0.529356 -2.266535 0.000000
v 0.519184 -2.266535 0.103272
v 0.489061 -2.266535 0.202576
v 0.440143 -2.266535 0.294094
v 0.374311 -2.266535 0.374311
v 0.294094 -2.266535 0.440143
v 0.202576 -2.266535 0.489061
v 0.103272 -2.266535 0.519184
v -0.000000 -2.266535 0.529356
v -0.103272 -2.266535 0.519184
v -0.202576 -2.266535 0.489061
v -0.294094 -2.266535 0.440143
v -0.374311 -2.266535 0.374311
v -0.440143 -2.266535 0.294094
v -0.489061 -2.266535 0.202576
v -0.519184 -2.266535 0.103272
v -0.529356 -2.266535 0.000000
v -0.519184 -2.266535 -0.103272
v -0.489061 -2.266535 -0.202576
v -0.440143 -2.266535 -0.294094
v -0.374311 -2.266535 -0.374311
v -0.294094 -2.266535 -0.440143
v -0.202576 -2.266535 -0.489061
v -0.103272 -2.266535 -0.519184
vn 0.0980 -0.0000 -0.9952
vn 0.2903 -0.0000 -0.9569
vn 0.4714 -0.0000 -0.8819
vn 0.6344 -0.0000 -0.7730
vn 0.7730 -0.0000 -0.6344
vn 0.8819 -0.0000 -0.4714
vn 0.9569 -0.0000 -0.2903
vn 0.9952 -0.0000 -0.0980
vn 0.9952 -0.0000 0.0980
vn 0.9569 -0.0000 0.2903
vn 0.8819 -0.0000 0.4714
vn 0.7730 -0.0000 0.6344
vn 0.6344 -0.0000 0.7730
vn 0.4714 -0.0000 0.8819
vn 0.2903 -0.0000 0.9569
vn 0.0980 -0.0000 0.9952
vn -0.0980 -0.0000 0.9952
vn -0.2903 -0.0000 0.9569
vn -0.4714 -0.0000 0.8819
vn -0.6344 -0.0000 0.7730
vn -0.7730 -0.0000 0.6344
vn -0.8819 -0.0000 0.4714
vn -0.9569 -0.0000 0.2903
vn -0.9952 -0.0000 0.0980
vn -0.9952 -0.0000 -0.0980
vn -0.9569 -0.0000 -0.2903
vn -0.8819 -0.0000 -0.4714
vn -0.7730 -0.0000 -0.6344
vn -0.6344 -0.0000 -0.7730
vn -0.4714 -0.0000 -0.8819
vn 0.7635 0.5005 0.4081
vn -0.2903 -0.0000 -0.9569
vn -0.0980 -0.0000 -0.9952
vn 0.9426 -0.3207 0.0928
vn 0.5457 0.5099 -0.6650
vn -0.5492 0.5005 0.6692
vn -0.5492 0.5005 -0.6692
vn 0.8285 0.5005 -0.2513
vn 0.0849 0.5005 0.8616
vn -0.8616 0.5005 -0.0849
vn 0.4081 0.5005 -0.7635
vn 0.6692 0.5005 0.5492
vn -0.6692 0.5005 0.5492
vn -0.4081 0.5005 -0.7635
vn 0.8616 0.5005 -0.0849
vn -0.0849 0.5005 0.8616
vn -0.8285 0.5005 -0.2513
vn 0.5492 0.5005 -0.6692
vn 0.5492 0.5005 0.6692
vn -0.7635 0.5005 0.4081
vn -0.2513 0.5005 -0.8285
vn 0.8616 0.5005 0.0849
vn -0.2513 0.5005 0.8285
vn -0.7635 0.5005 -0.4081
vn 0.6692 0.5005 -0.5492
vn 0.4081 0.5005 0.7635
vn 0.0849 0.5005 -0.8616
vn -0.8285 0.5005 0.2513
vn -0.0849 0.5005 -0.8616
vn 0.8285 0.5005 0.2513
vn -0.4081 0.5005 0.7635
vn -0.6692 0.5005 -0.5492
vn 0.7635 0.5005 -0.4081
vn 0.2513 0.5005 0.8285
vn -0.8616 0.5005 0.0849
vn 0.2513 0.5005 -0.8285
vn -0.2497 0.5099 -0.8232
vn -0.2497 0.5099 0.8232
vn 0.6650 0.5099 -0.5457
vn -0.0843 0.5099 -0.8561
vn -0.4055 0.5099 0.7587
vn 0.7587 0.5099 -0.4055
vn -0.5457 0.5099 0.6650
vn 0.8232 0.5099 -0.2497
vn -0.6650 0.5099 0.5457
vn 0.8561 0.5099 -0.0843
vn -0.7587 0.5099 0.4055
vn 0.8561 0.5099 0.0843
vn -0.8232 0.5099 0.2497
vn 0.8232 0.5099 0.2497
vn -0.8561 0.5099 0.0843
vn 0.7587 0.5099 0.4055
vn -0.8561 0.5099 -0.0843
vn 0.6650 0.5099 0.5457
vn -0.8232 0.5099 -0.2497
vn 0.5457 0.5099 0.6650
vn -0.7587 0.5099 -0.4055
vn 0.4055 0.5099 0.7587
vn 0.0843 0.5099 -0.8561
vn -0.6650 0.5099 -0.5457
vn 0.2497 0.5099 0.8232
vn 0.2497 0.5099 -0.8232
vn -0.5457 0.5099 -0.6650
vn 0.0843 0.5099 0.8561
vn 0.4055 0.5099 -0.7587
vn -0.4055 0.5099 -0.7587
vn -0.0843 0.5099 0.8561
vn 0.9522 0.0989 0.2889
vn 0.5055 -0.8194 -0.2702
vn -0.9903 0.0989 0.0975
vn 0.8776 0.0989 0.4691
vn -0.9903 0.0989 -0.0975
vn 0.7692 0.0989 0.6313
vn -0.9522 0.0989 -0.2889
vn 0.6313 0.0989 0.7692
vn -0.8776 0.0989 -0.4691
vn 0.4691 0.0989 0.8776
vn 0.0975 0.0989 -0.9903
vn -0.7692 0.0989 -0.6313
vn 0.2889 0.0989 0.9522
vn 0.2889 0.0989 -0.9522
vn -0.6313 0.0989 -0.7692
vn 0.0975 0.0989 0.9903
vn 0.4691 0.0989 -0.8776
vn -0.4691 0.0989 -0.8776
vn -0.0975 0.0989 0.9903
vn 0.6313 0.0989 -0.7692
vn -0.2889 0.0989 -0.9522
vn -0.2889 0.0989 0.9522
vn 0.7692 0.0989 -0.6313
vn -0.0975 0.0989 -0.9903
vn -0.4691 0.0989 0.8776
vn 0.8776 0.0989 -0.4691
vn -0.6313 0.0989 0.7692
vn 0.9522 0.0989 -0.2889
vn -0.7692 0.0989 0.6313
vn 0.9903 0.0989 -0.0975
vn -0.8776 0.0989 0.4691
vn 0.9903 0.0989 0.0975
vn -0.9522 0.0989 0.2889
vn 0.8838 0.4597 0.0870
vn -0.3637 -0.8194 0.4431
vn 0.5485 -0.8194 -0.1664
vn -0.4431 -0.8194 0.3637
vn 0.5705 -0.8194 -0.0562
vn -0.5055 -0.8194 0.2702
vn 0.5705 -0.8194 0.0562
vn -0.5485 -0.8194 0.1664
vn 0.5485 -0.8194 0.1664
vn -0.5705 -0.8194 0.0562
vn 0.5055 -0.8194 0.2702
vn -0.5705 -0.8194 -0.0562
vn 0.4431 -0.8194 0.3637
vn -0.5485 -0.8194 -0.1664
vn 0.3636 -0.8194 0.4431
vn -0.5055 -0.8194 -0.2702
vn 0.2702 -0.8194 0.5055
vn 0.0562 -0.8194 -0.5705
vn -0.4431 -0.8194 -0.3636
vn 0.1664 -0.8194 0.5485
vn 0.1664 -0.8194 -0.5485
vn -0.3636 -0.8194 -0.4431
vn 0.0562 -0.8194 0.5705
vn 0.2702 -0.8194 -0.5055
vn -0.2702 -0.8194 -0.5055
vn -0.0562 -0.8194 0.5705
vn 0.3636 -0.8194 -0.4431
vn -0.1664 -0.8194 -0.5485
vn -0.1664 -0.8194 0.5485
vn 0.4431 -0.8194 -0.3637
vn -0.0562 -0.8194 -0.5705
vn -0.2702 -0.8194 0.5055
vn -0.8498 0.4597 0.2578
vn 0.8498 0.4597 0.2578
vn -0.8838 0.4597 0.0870
vn 0.7832 0.4597 0.4186
vn -0.8838 0.4597 -0.0870
vn 0.6865 0.4597 0.5634
vn -0.8498 0.4597 -0.2578
vn 0.5634 0.4597 0.6865
vn -0.7832 0.4597 -0.4186
vn 0.4186 0.4597 0.7832
vn 0.0870 0.4597 -0.8838
vn -0.6865 0.4597 -0.5634
vn 0.2578 0.4597 0.8498
vn 0.2578 0.4597 -0.8498
vn -0.5634 0.4597 -0.6865
vn 0.0870 0.4597 0.8838
vn 0.4186 0.4597 -0.7832
vn -0.4186 0.4597 -0.7832
vn -0.0870 0.4597 0.8838
vn 0.5634 0.4597 -0.6865
vn -0.2578 0.4597 -0.8498
vn -0.2578 0.4597 0.8498
vn 0.6865 0.4597 -0.5634
vn -0.0870 0.4597 -0.8838
vn -0.4186 0.4597 0.7832
vn 0.7832 0.4597 -0.4186
vn -0.5634 0.4597 0.6865
vn 0.8498 0.4597 -0.2578
vn -0.6865 0.4597 0.5634
vn 0.8838 0.4597 -0.0870
vn -0.7832 0.4597 0.4186
vn -0.0000 1.0000 -0.0000
vn -0.0000 -1.0000 -0.0000
vn -0.2750 -0.3207 0.9064
vn -0.8353 -0.3207 -0.4465
vn 0.7322 -0.3207 -0.6009
vn 0.4465 -0.3207 0.8353
vn 0.0928 -0.3207 -0.9426
vn -0.9064 -0.3207 0.2750
vn -0.0928 -0.3207 -0.9426
vn 0.9064 -0.3207 0.2750
vn -0.4465 -0.3207 0.8353
vn -0.7322 -0.3207 -0.6009
vn 0.8353 -0.3207 -0.4465
vn 0.2750 -0.3207 0.9064
vn -0.9426 -0.3207 0.0928
vn 0.2750 -0.3207 -0.9064
vn 0.8353 -0.3207 0.4465
vn -0.6009 -0.3207 0.7322
vn -0.6009 -0.3207 -0.7322
vn 0.9064 -0.3207 -0.2750
vn 0.0928 -0.3207 0.9426
vn -0.9426 -0.3207 -0.0928
vn 0.4465 -0.3207 -0.8353
vn 0.7322 -0.3207 0.6009
vn -0.7322 -0.3207 0.6009
vn -0.4465 -0.3207 -0.8353
vn 0.9426 -0.3207 -0.0928
vn -0.0928 -0.3207 0.9426
vn -0.9064 -0.3207 -0.2750
vn 0.6009 -0.3207 -0.7322
vn 0.6009 -0.3207 0.7322
vn -0.8353 -0.3207 0.4465
vn -0.2750 -0.3207 -0.9064
vt 1.000000 0.500000
vt 1.000000 1.000000
vt 0.968750 1.000000
vt 0.968750 0.500000
vt 0.937500 1.000000
vt 0.937500 0.500000
vt 0.906250 1.000000
vt 0.906250 0.500000
vt 0.875000 1.000000
vt 0.875000 0.500000
vt 0.843750 1.000000
vt 0.843750 0.500000
vt 0.812500 1.000000
vt 0.812500 0.500000
vt 0.781250 1.000000
vt 0.781250 0.500000
vt 0.750000 1.000000
vt 0.750000 0.500000
vt 0.718750 1.000000
vt 0.718750 0.500000
vt 0.687500 1.000000
vt 0.687500 0.500000
vt 0.656250 1.000000
vt 0.656250 0.500000
vt 0.625000 1.000000
vt 0.625000 0.500000
vt 0.593750 1.000000
vt 0.593750 0.500000
vt 0.562500 1.000000
vt 0.562500 0.500000
vt 0.531250 1.000000
vt 0.531250 0.500000
vt 0.500000 1.000000
vt 0.500000 0.500000
vt 0.468750 1.000000
vt 0.468750 0.500000
vt 0.437500 1.000000
vt 0.437500 0.500000
vt 0.406250 1.000000
vt 0.406250 0.500000
vt 0.375000 1.000000
vt 0.375000 0.500000
vt 0.343750 1.000000
vt 0.343750 0.500000
vt 0.312500 1.000000
vt 0.312500 0.500000
vt 0.281250 1.000000
vt 0.281250 0.500000
vt 0.250000 1.000000
vt 0.250000 0.500000
vt 0.218750 1.000000
vt 0.218750 0.500000
vt 0.187500 1.000000
vt 0.187500 0.500000
vt 0.156250 1.000000
vt 0.156250 0.500000
vt 0.125000 1.000000
vt 0.125000 0.500000
vt 0.093750 1.000000
vt 0.093750 0.500000
vt 0.062500 1.000000
vt 0.062500 0.500000
vt 0.031250 1.000000
vt 0.031250 0.500000
vt 0.000000 1.000000
vt 0.000000 0.500000
vt 0.296822 0.485388
vt 0.250000 0.490000
vt 0.203178 0.485388
vt 0.158156 0.471731
vt 0.116663 0.449553
vt 0.080294 0.419706
vt 0.050447 0.383337
vt 0.028269 0.341844
vt 0.014612 0.296822
vt 0.010000 0.250000
vt 0.014612 0.203178
vt 0.028269 0.158156
vt 0.050447 0.116663
vt 0.080294 0.080294
vt 0.116663 0.050447
vt 0.158156 0.028269
vt 0.203178 0.014612
vt 0.250000 0.010000
vt 0.296822 0.014612
vt 0.341844 0.028269
vt 0.383337 0.050447
vt 0.419706 0.080294
vt 0.449553 0.116663
vt 0.471731 0.158156
vt 0.485388 0.203178
vt 0.490000 0.250000
vt 0.485388 0.296822
vt 0.471731 0.341844
vt 0.449553 0.383337
vt 0.419706 0.419706
vt 0.383337 0.449553
vt 0.341844 0.471731
vt 0.750000 0.490000
vt 0.796822 0.485388
vt 0.841844 0.471731
vt 0.883337 0.449553
vt 0.919706 0.419706
vt 0.949553 0.383337
vt 0.971731 0.341844
vt 0.985388 0.296822
vt 0.990000 0.250000
vt 0.985388 0.203178
vt 0.971731 0.158156
vt 0.949553 0.116663
vt 0.919706 0.080294
vt 0.883337 0.050447
vt 0.841844 0.028269
vt 0.796822 0.014612
vt 0.750000 0.010000
vt 0.703178 0.014612
vt 0.658156 0.028269
vt 0.616663 0.050447
vt 0.580294 0.080294
vt 0.550447 0.116663
vt 0.528269 0.158156
vt 0.514612 0.203178
vt 0.510000 0.250000
vt 0.514612 0.296822
vt 0.528269 0.341844
vt 0.550447 0.383337
vt 0.580294 0.419706
vt 0.616663 0.449553
vt 0.658156 0.471731
vt 0.703178 0.485388
s 0
usemtl Material.001
f 1/1/1 2/2/1 4/3/1 3/4/1
f 3/4/2 4/3/2 6/5/2 5/6/2
f 5/6/3 6/5/3 8/7/3 7/8/3
f 7/8/4 8/7/4 10/9/4 9/10/4
f 9/10/5 10/9/5 12/11/5 11/12/5
f 11/12/6 12/11/6 14/13/6 13/14/6
f 13/14/7 14/13/7 16/15/7 15/16/7
f 15/16/8 16/15/8 18/17/8 17/18/8
f 17/18/9 18/17/9 20/19/9 19/20/9
f 19/20/10 20/19/10 22/21/10 21/22/10
f 21/22/11 22/21/11 24/23/11 23/24/11
f 23/24/12 24/23/12 26/25/12 25/26/12
f 25/26/13 26/25/13 28/27/13 27/28/13
f 27/28/14 28/27/14 30/29/14 29/30/14
f 29/30/15 30/29/15 32/31/15 31/32/15
f 31/32/16 32/31/16 34/33/16 33/34/16
f 33/34/17 34/33/17 36/35/17 35/36/17
f 35/36/18 36/35/18 38/37/18 37/38/18
f 37/38/19 38/37/19 40/39/19 39/40/19
f 39/40/20 40/39/20 42/41/20 41/42/20
f 41/42/21 42/41/21 44/43/21 43/44/21
f 43/44/22 44/43/22 46/45/22 45/46/22
f 45/46/23 46/45/23 48/47/23 47/48/23
f 47/48/24 48/47/24 50/49/24 49/50/24
f 49/50/25 50/49/25 52/51/25 51/52/25
f 51/52/26 52/51/26 54/53/26 53/54/26
f 53/54/27 54/53/27 56/55/27 55/56/27
f 55/56/28 56/55/28 58/57/28 57/58/28
f 57/58/29 58/57/29 60/59/29 59/60/29
f 59/60/30 60/59/30 62/61/30 61/62/30
f 24/23/31 22/21/31 75/21/31 76/23/31
f 61/62/32 62/61/32 64/63/32 63/64/32
f 63/64/33 64/63/33 2/65/33 1/66/33
f 17/18/34 19/20/34 298/20/34 297/18/34
f 69/9/35 68/7/35 100/7/35 101/9/35
f 42/41/36 40/39/36 84/39/36 85/41/36
f 60/59/37 58/57/37 93/57/37 94/59/37
f 16/15/38 14/13/38 71/13/38 72/15/38
f 34/33/39 32/31/39 80/31/39 81/33/39
f 52/51/40 50/49/40 89/49/40 90/51/40
f 8/7/41 6/5/41 67/5/41 68/7/41
f 26/25/42 24/23/42 76/23/42 77/25/42
f 44/43/43 42/41/43 85/41/43 86/43/43
f 62/61/44 60/59/44 94/59/44 95/61/44
f 18/17/45 16/15/45 72/15/45 73/17/45
f 36/35/46 34/33/46 81/33/46 82/35/46
f 54/53/47 52/51/47 90/51/47 91/53/47
f 10/9/48 8/7/48 68/7/48 69/9/48
f 28/27/49 26/25/49 77/25/49 78/27/49
f 46/45/50 44/43/50 86/43/50 87/45/50
f 64/63/51 62/61/51 95/61/51 96/63/51
f 20/19/52 18/17/52 73/17/52 74/19/52
f 38/37/53 36/35/53 82/35/53 83/37/53
f 56/55/54 54/53/54 91/53/54 92/55/54
f 12/11/55 10/9/55 69/9/55 70/11/55
f 30/29/56 28/27/56 78/27/56 79/29/56
f 4/3/57 2/2/57 66/2/57 65/3/57
f 48/47/58 46/45/58 87/45/58 88/47/58
f 2/65/59 64/63/59 96/63/59 66/65/59
f 22/21/60 20/19/60 74/19/60 75/21/60
f 40/39/61 38/37/61 83/37/61 84/39/61
f 58/57/62 56/55/62 92/55/62 93/57/62
f 14/13/63 12/11/63 70/11/63 71/13/63
f 32/31/64 30/29/64 79/29/64 80/31/64
f 50/49/65 48/47/65 88/47/65 89/49/65
f 6/5/66 4/3/66 65/3/66 67/5/66
f 104/15/7 103/13/7 135/13/7 136/15/7
f 96/63/67 95/61/67 127/61/67 128/63/67
f 83/37/68 82/35/68 114/35/68 115/37/68
f 70/11/69 69/9/69 101/9/69 102/11/69
f 66/65/70 96/63/70 128/63/70 98/65/70
f 84/39/71 83/37/71 115/37/71 116/39/71
f 71/13/72 70/11/72 102/11/72 103/13/72
f 85/41/73 84/39/73 116/39/73 117/41/73
f 72/15/74 71/13/74 103/13/74 104/15/74
f 86/43/75 85/41/75 117/41/75 118/43/75
f 73/17/76 72/15/76 104/15/76 105/17/76
f 87/45/77 86/43/77 118/43/77 119/45/77
f 74/19/78 73/17/78 105/17/78 106/19/78
f 88/47/79 87/45/79 119/45/79 120/47/79
f 75/21/80 74/19/80 106/19/80 107/21/80
f 89/49/81 88/47/81 120/47/81 121/49/81
f 76/23/82 75/21/82 107/21/82 108/23/82
f 90/51/83 89/49/83 121/49/83 122/51/83
f 77/25/84 76/23/84 108/23/84 109/25/84
f 91/53/85 90/51/85 122/51/85 123/53/85
f 78/27/86 77/25/86 109/25/86 110/27/86
f 92/55/87 91/53/87 123/53/87 124/55/87
f 79/29/88 78/27/88 110/27/88 111/29/88
f 65/3/89 66/2/89 98/2/89 97/3/89
f 93/57/90 92/55/90 124/55/90 125/57/90
f 80/31/91 79/29/91 111/29/91 112/31/91
f 67/5/92 65/3/92 97/3/92 99/5/92
f 94/59/93 93/57/93 125/57/93 126/59/93
f 81/33/94 80/31/94 112/31/94 113/33/94
f 68/7/95 67/5/95 99/5/95 100/7/95
f 95/61/96 94/59/96 126/59/96 127/61/96
f 82/35/97 81/33/97 113/33/97 114/35/97
f 139/21/98 138/19/98 170/19/98 171/21/98
f 118/43/21 117/41/21 149/41/21 150/43/21
f 105/17/8 104/15/8 136/15/8 137/17/8
f 119/45/22 118/43/22 150/43/22 151/45/22
f 106/19/9 105/17/9 137/17/9 138/19/9
f 120/47/23 119/45/23 151/45/23 152/47/23
f 107/21/10 106/19/10 138/19/10 139/21/10
f 121/49/24 120/47/24 152/47/24 153/49/24
f 108/23/11 107/21/11 139/21/11 140/23/11
f 122/51/25 121/49/25 153/49/25 154/51/25
f 109/25/12 108/23/12 140/23/12 141/25/12
f 123/53/26 122/51/26 154/51/26 155/53/26
f 110/27/13 109/25/13 141/25/13 142/27/13
f 124/55/27 123/53/27 155/53/27 156/55/27
f 111/29/14 110/27/14 142/27/14 143/29/14
f 97/3/1 98/2/1 130/2/1 129/3/1
f 125/57/28 124/55/28 156/55/28 157/57/28
f 112/31/15 111/29/15 143/29/15 144/31/15
f 99/5/2 97/3/2 129/3/2 131/5/2
f 126/59/29 125/57/29 157/57/29 158/59/29
f 113/33/16 112/31/16 144/31/16 145/33/16
f 100/7/3 99/5/3 131/5/3 132/7/3
f 127/61/30 126/59/30 158/59/30 159/61/30
f 114/35/17 113/33/17 145/33/17 146/35/17
f 101/9/4 100/7/4 132/7/4 133/9/4
f 128/63/32 127/61/32 159/61/32 160/63/32
f 115/37/18 114/35/18 146/35/18 147/37/18
f 102/11/5 101/9/5 133/9/5 134/11/5
f 98/65/33 128/63/33 160/63/33 130/65/33
f 116/39/19 115/37/19 147/37/19 148/39/19
f 103/13/6 102/11/6 134/11/6 135/13/6
f 117/41/20 116/39/20 148/39/20 149/41/20
f 167/13/99 166/11/99 198/11/99 199/13/99
f 153/49/100 152/47/100 184/47/100 185/49/100
f 140/23/101 139/21/101 171/21/101 172/23/101
f 154/51/102 153/49/102 185/49/102 186/51/102
f 141/25/103 140/23/103 172/23/103 173/25/103
f 155/53/104 154/51/104 186/51/104 187/53/104
f 142/27/105 141/25/105 173/25/105 174/27/105
f 156/55/106 155/53/106 187/53/106 188/55/106
f 143/29/107 142/27/107 174/27/107 175/29/107
f 129/3/108 130/2/108 162/2/108 161/3/108
f 157/57/109 156/55/109 188/55/109 189/57/109
f 144/31/110 143/29/110 175/29/110 176/31/110
f 131/5/111 129/3/111 161/3/111 163/5/111
f 158/59/112 157/57/112 189/57/112 190/59/112
f 145/33/113 144/31/113 176/31/113 177/33/113
f 132/7/114 131/5/114 163/5/114 164/7/114
f 159/61/115 158/59/115 190/59/115 191/61/115
f 146/35/116 145/33/116 177/33/116 178/35/116
f 133/9/117 132/7/117 164/7/117 165/9/117
f 160/63/118 159/61/118 191/61/118 192/63/118
f 147/37/119 146/35/119 178/35/119 179/37/119
f 134/11/120 133/9/120 165/9/120 166/11/120
f 130/65/121 160/63/121 192/63/121 162/65/121
f 148/39/122 147/37/122 179/37/122 180/39/122
f 135/13/123 134/11/123 166/11/123 167/13/123
f 149/41/124 148/39/124 180/39/124 181/41/124
f 136/15/125 135/13/125 167/13/125 168/15/125
f 150/43/126 149/41/126 181/41/126 182/43/126
f 137/17/127 136/15/127 168/15/127 169/17/127
f 151/45/128 150/43/128 182/43/128 183/45/128
f 138/19/129 137/17/129 169/17/129 170/19/129
f 152/47/130 151/45/130 183/45/130 184/47/130
f 202/19/131 201/17/131 233/17/131 234/19/131
f 181/41/132 180/39/132 212/39/132 213/41/132
f 168/15/133 167/13/133 199/13/133 200/15/133
f 182/43/134 181/41/134 213/41/134 214/43/134
f 169/17/135 168/15/135 200/15/135 201/17/135
f 183/45/136 182/43/136 214/43/136 215/45/136
f 170/19/137 169/17/137 201/17/137 202/19/137
f 184/47/138 183/45/138 215/45/138 216/47/138
f 171/21/139 170/19/139 202/19/139 203/21/139
f 185/49/140 184/47/140 216/47/140 217/49/140
f 172/23/141 171/21/141 203/21/141 204/23/141
f 186/51/142 185/49/142 217/49/142 218/51/142
f 173/25/143 172/23/143 204/23/143 205/25/143
f 187/53/144 186/51/144 218/51/144 219/53/144
f 174/27/145 173/25/145 205/25/145 206/27/145
f 188/55/146 187/53/146 219/53/146 220/55/146
f 175/29/147 174/27/147 206/27/147 207/29/147
f 161/3/148 162/2/148 194/2/148 193/3/148
f 189/57/149 188/55/149 220/55/149 221/57/149
f 176/31/150 175/29/150 207/29/150 208/31/150
f 163/5/151 161/3/151 193/3/151 195/5/151
f 190/59/152 189/57/152 221/57/152 222/59/152
f 177/33/153 176/31/153 208/31/153 209/33/153
f 164/7/154 163/5/154 195/5/154 196/7/154
f 191/61/155 190/59/155 222/59/155 223/61/155
f 178/35/156 177/33/156 209/33/156 210/35/156
f 165/9/157 164/7/157 196/7/157 197/9/157
f 192/63/158 191/61/158 223/61/158 224/63/158
f 179/37/159 178/35/159 210/35/159 211/37/159
f 166/11/160 165/9/160 197/9/160 198/11/160
f 162/65/161 192/63/161 224/63/161 194/65/161
f 180/39/162 179/37/162 211/37/162 212/39/162
f 237/25/12 236/23/12 268/23/12 269/25/12
f 216/47/163 215/45/163 247/45/163 248/47/163
f 203/21/164 202/19/164 234/19/164 235/21/164
f 217/49/165 216/47/165 248/47/165 249/49/165
f 204/23/166 203/21/166 235/21/166 236/23/166
f 218/51/167 217/49/167 249/49/167 250/51/167
f 205/25/168 204/23/168 236/23/168 237/25/168
f 219/53/169 218/51/169 250/51/169 251/53/169
f 206/27/170 205/25/170 237/25/170 238/27/170
f 220/55/171 219/53/171 251/53/171 252/55/171
f 207/29/172 206/27/172 238/27/172 239/29/172
f 193/3/173 194/2/173 226/2/173 225/3/173
f 221/57/174 220/55/174 252/55/174 253/57/174
f 208/31/175 207/29/175 239/29/175 240/31/175
f 195/5/176 193/3/176 225/3/176 227/5/176
f 222/59/177 221/57/177 253/57/177 254/59/177
f 209/33/178 208/31/178 240/31/178 241/33/178
f 196/7/179 195/5/179 227/5/179 228/7/179
f 223/61/180 222/59/180 254/59/180 255/61/180
f 210/35/181 209/33/181 241/33/181 242/35/181
f 197/9/182 196/7/182 228/7/182 229/9/182
f 224/63/183 223/61/183 255/61/183 256/63/183
f 211/37/184 210/35/184 242/35/184 243/37/184
f 198/11/185 197/9/185 229/9/185 230/11/185
f 194/65/186 224/63/186 256/63/186 226/65/186
f 212/39/187 211/37/187 243/37/187 244/39/187
f 199/13/188 198/11/188 230/11/188 231/13/188
f 213/41/189 212/39/189 244/39/189 245/41/189
f 200/15/190 199/13/190 231/13/190 232/15/190
f 214/43/191 213/41/191 245/41/191 246/43/191
f 201/17/192 200/15/192 232/15/192 233/17/192
f 215/45/193 214/43/193 246/43/193 247/45/193
f 257/67/194 258/68/194 288/69/194 287/70/194 286/71/194 285/72/194 284/73/194 283/74/194 282/75/194 281/76/194 280/77/194 279/78/194 278/79/194 277/80/194 276/81/194 275/82/194 274/83/194 273/84/194 272/85/194 271/86/194 270/87/194 269/88/194 268/89/194 267/90/194 266/91/194 265/92/194 264/93/194 263/94/194 262/95/194 261/96/194 260/97/194 259/98/194
f 251/53/26 250/51/26 282/51/26 283/53/26
f 238/27/13 237/25/13 269/25/13 270/27/13
f 252/55/27 251/53/27 283/53/27 284/55/27
f 239/29/14 238/27/14 270/27/14 271/29/14
f 225/3/1 226/2/1 258/2/1 257/3/1
f 253/57/28 252/55/28 284/55/28 285/57/28
f 240/31/15 239/29/15 271/29/15 272/31/15
f 227/5/2 225/3/2 257/3/2 259/5/2
f 254/59/29 253/57/29 285/57/29 286/59/29
f 241/33/16 240/31/16 272/31/16 273/33/16
f 228/7/3 227/5/3 259/5/3 260/7/3
f 255/61/30 254/59/30 286/59/30 287/61/30
f 242/35/17 241/33/17 273/33/17 274/35/17
f 229/9/4 228/7/4 260/7/4 261/9/4
f 256/63/32 255/61/32 287/61/32 288/63/32
f 243/37/18 242/35/18 274/35/18 275/37/18
f 230/11/5 229/9/5 261/9/5 262/11/5
f 226/65/33 256/63/33 288/63/33 258/65/33
f 244/39/19 243/37/19 275/37/19 276/39/19
f 231/13/6 230/11/6 262/11/6 263/13/6
f 245/41/20 244/39/20 276/39/20 277/41/20
f 232/15/7 231/13/7 263/13/7 264/15/7
f 246/43/21 245/41/21 277/41/21 278/43/21
f 233/17/8 232/15/8 264/15/8 265/17/8
f 247/45/22 246/43/22 278/43/22 279/45/22
f 234/19/9 233/17/9 265/17/9 266/19/9
f 248/47/23 247/45/23 279/45/23 280/47/23
f 235/21/10 234/19/10 266/19/10 267/21/10
f 249/49/24 248/47/24 280/47/24 281/49/24
f 236/23/11 235/21/11 267/21/11 268/23/11
f 250/51/25 249/49/25 281/49/25 282/51/25
f 289/99/195 290/100/195 291/101/195 292/102/195 293/103/195 294/104/195 295/105/195 296/106/195 297/107/195 298/108/195 299/109/195 300/110/195 301/111/195 302/112/195 303/113/195 304/114/195 305/115/195 306/116/195 307/117/195 308/118/195 309/119/195 310/120/195 311/121/195 312/122/195 313/123/195 314/124/195 315/125/195 316/126/195 317/127/195 318/128/195 319/129/195 320/130/195
f 35/36/196 37/38/196 307/38/196 306/36/196
f 53/54/197 55/56/197 316/56/197 315/54/197
f 9/10/198 11/12/198 294/12/198 293/10/198
f 27/28/199 29/30/199 303/30/199 302/28/199
f 1/1/200 3/4/200 290/4/200 289/1/200
f 45/46/201 47/48/201 312/48/201 311/46/201
f 63/64/202 1/66/202 289/66/202 320/64/202
f 19/20/203 21/22/203 299/22/203 298/20/203
f 37/38/204 39/40/204 308/40/204 307/38/204
f 55/56/205 57/58/205 317/58/205 316/56/205
f 11/12/206 13/14/206 295/14/206 294/12/206
f 29/30/207 31/32/207 304/32/207 303/30/207
f 47/48/208 49/50/208 313/50/208 312/48/208
f 3/4/209 5/6/209 291/6/209 290/4/209
f 21/22/210 23/24/210 300/24/210 299/22/210
f 39/40/211 41/42/211 309/42/211 308/40/211
f 57/58/212 59/60/212 318/60/212 317/58/212
f 13/14/213 15/16/213 296/16/213 295/14/213
f 31/32/214 33/34/214 305/34/214 304/32/214
f 49/50/215 51/52/215 314/52/215 313/50/215
f 5/6/216 7/8/216 292/8/216 291/6/216
f 23/24/217 25/26/217 301/26/217 300/24/217
f 41/42/218 43/44/218 310/44/218 309/42/218
f 59/60/219 61/62/219 319/62/219 318/60/219
f 15/16/220 17/18/220 297/18/220 296/16/220
f 33/34/221 35/36/221 306/36/221 305/34/221
f 51/52/222 53/54/222 315/54/222 314/52/222
f 7/8/223 9/10/223 293/10/223 292/8/223
f 25/26/224 27/28/224 302/28/224 301/26/224
f 43/44/225 45/46/225 311/46/225 310/44/225
f 61/62/226 63/64/226 320/64/226 319/62/226
